# xmcd CD database file
#
# Track frame offsets:
#	150
#	17021
#	28601
#	43710
#	57536
#	74488
#	96658
#	109985
#	127432
#	148662
#	159205
#	178166
#	200093
#	215098
#	229502
#
# Disc length: 3249 seconds
#
# Revision: 0
# Processed by: cddbd v1.5.1PL0 Copyright (c) Steve Scherf et al.
# Submitted via: CDex 1.51
#
DISCID=ee0caf0f
DTITLE=Pachamerica - The Invisible Seed
DYEAR=2004
DGENRE=New Age
TTITLE0=Danny Boy
TTITLE1=Greensleeves
TTITLE2=Drummer Boy
TTITLE3=Time for us
TTITLE4=Chi May
TTITLE5=I Will Return
TTITLE6=Palomitas
TTITLE7=Tango Adagio
TTITLE8=Mystical Force
TTITLE9=Morning has Broken
TTITLE10=La Partida
TTITLE11=Gentiles
TTITLE12=Por el Suelo
TTITLE13=Invisible Seed - Sol de Fuego
TTITLE14=Quitate la Mascara
EXTD=YEAR: 2004
EXTT0=
EXTT1=
EXTT2=
EXTT3=
EXTT4=
EXTT5=
EXTT6=
EXTT7=
EXTT8=
EXTT9=
EXTT10=
EXTT11=
EXTT12=
EXTT13=
EXTT14=
PLAYORDER=
